<svg width="160" height="50" viewBox="0 0 160 50" fill="none" xmlns="http://www.w3.org/2000/svg">
<g clip-path="url(#clip0_5536_1617)">
<path d="M13.4526 6.92348C16.2268 6.66751 19.0726 7.18677 21.563 8.43005C24.7117 9.9805 27.2729 12.6645 28.6644 15.8663C29.8879 18.6528 30.2137 21.8122 29.6078 24.7887C29.1015 27.3119 27.9156 29.6939 26.2138 31.6341C24.5407 33.5502 22.3708 35.0349 19.9681 35.8956C16.983 36.9722 13.6546 37.0731 10.6076 36.1882C7.77001 35.3713 5.19773 33.6943 3.30058 31.4476C1.66435 29.5198 0.5293 27.1744 0.0487481 24.6973C-0.518775 21.8012 -0.212902 18.7369 0.946466 16.0185C2.09183 13.3081 4.06563 10.9525 6.53767 9.33399C8.59402 7.98101 10.9931 7.14362 13.4511 6.92495M10.7484 12.6331C10.2811 12.8722 9.78139 13.1172 9.47921 13.5641C8.96623 14.2625 8.98318 15.293 9.5367 15.9629C9.98924 16.5385 10.7764 16.8237 11.4972 16.6781C11.9837 16.5845 12.3876 16.2759 12.8504 16.115C13.7548 15.7859 14.7542 15.7164 15.6976 15.9044C16.504 16.0631 17.2646 16.5538 17.6302 17.2998C18.0208 18.0333 17.9935 18.8839 17.9861 19.6891H22.8381C22.8528 18.6242 22.7806 17.5462 22.4769 16.5202C22.1232 15.2769 21.4289 14.1162 20.425 13.2854C19.3489 12.3808 17.9736 11.8849 16.585 11.7116C14.6061 11.4702 12.5365 11.7335 10.7477 12.6331M7.2467 19.7615C7.00127 19.8785 6.83617 20.1345 6.83249 20.4051L6.81406 24.4384C6.88776 24.0172 6.93715 23.5879 7.08308 23.1834C7.42802 22.1354 8.20191 21.2578 9.15638 20.7078C10.4565 19.9531 11.9918 19.6927 13.4828 19.7001C11.6137 19.6664 9.7438 19.6964 7.87393 19.684C7.66387 19.6883 7.44055 19.6649 7.24744 19.7615M14.1056 22.0447C13.5926 22.1932 13.1342 22.5172 12.8269 22.9516C12.1502 23.8643 12.2741 25.2495 13.1114 26.0232C13.9339 26.8533 15.3829 26.9155 16.2784 26.1651C17.1835 25.4674 17.4341 24.0969 16.8408 23.1257C16.3175 22.1998 15.1279 21.7303 14.1064 22.0447M6.81701 25.1946C6.84944 26.4891 6.81701 27.7836 6.83396 29.0795C6.85239 29.8657 7.19806 30.6358 7.77148 31.1785C8.32795 31.7124 9.09521 32.0217 9.8691 32.0195L19.7492 32.0188C20.5857 32.021 21.4554 31.7643 22.0605 31.1704C22.5838 30.6687 22.8462 29.9418 22.8381 29.2273C22.7843 29.4408 22.6339 29.6514 22.39 29.6492L18.9318 29.6544C18.6605 29.6705 18.4011 29.4452 18.407 29.1717C18.3908 28.7621 18.4077 28.3526 18.4018 27.943C17.4481 28.9084 16.204 29.5776 14.8758 29.8738C13.5248 30.1722 12.0957 30.1626 10.7572 29.8036C9.48215 29.4598 8.28667 28.6992 7.58574 27.5678C7.12288 26.8584 6.9202 26.0247 6.81701 25.1983V25.1946Z" fill="#FDB913"/>
<path d="M10.7487 12.6314C12.5383 11.7333 14.6079 11.4686 16.5861 11.7099C17.974 11.8832 19.35 12.3791 20.4261 13.2838C21.43 14.1146 22.1243 15.2759 22.478 16.5185C22.7802 17.5453 22.8539 18.6226 22.8392 19.6874H17.9872C17.9946 18.8829 18.0211 18.0316 17.6313 17.2981C17.2657 16.5521 16.5051 16.0621 15.6987 15.9027C14.7553 15.7147 13.7559 15.7842 12.8515 16.1133C12.3887 16.2742 11.9855 16.5829 11.4983 16.6765C10.7775 16.8227 9.99033 16.5375 9.53779 15.9612C8.98501 15.2906 8.96732 14.2601 9.4803 13.5624C9.78249 13.1163 10.2822 12.8706 10.7495 12.6314H10.7487Z" fill="black"/>
<path d="M49.0027 12.042H53.0417L53.0425 17.3077L61.6143 17.3084L61.6135 19.9222L53.0417 19.9229V25.7313C53.0513 26.4465 53.1788 27.2101 53.6498 27.779C54.0426 28.2471 54.6816 28.4124 55.2728 28.4263C55.9214 28.4482 56.6348 28.321 57.1036 27.8375C57.6239 27.3015 57.778 26.5262 57.7912 25.8059L57.7942 22.076H61.6135L61.6098 26.1752C61.5855 27.4331 61.2045 28.7217 60.3628 29.6856C59.3766 30.8412 57.8701 31.4555 56.3739 31.5923C55.2079 31.6961 54.0117 31.6537 52.8803 31.3363C51.7084 30.9926 50.5984 30.3197 49.9063 29.3017C49.1325 28.1791 48.9556 26.7712 49.0013 25.4417V12.042H49.0027ZM103.544 12.2014H107.584V19.1112C108.343 18.1604 109.392 17.4196 110.589 17.1307C111.807 16.8359 113.11 16.882 114.307 17.2477C115.416 17.5987 116.409 18.2986 117.1 19.2296C118.004 20.4246 118.427 21.9166 118.526 23.391C118.623 24.9136 118.452 26.4831 117.809 27.8829C117.316 28.9887 116.527 29.9818 115.492 30.6327C114.084 31.5264 112.33 31.8029 110.694 31.5491C109.426 31.3641 108.251 30.6525 107.532 29.5964C107.5 30.1522 107.505 30.711 107.491 31.269H103.545V12.2014M110.413 20.1146C109.594 20.1804 108.779 20.5548 108.29 21.2262C107.774 21.9115 107.567 22.7693 107.478 23.6075C107.397 24.469 107.384 25.3605 107.659 26.192C107.965 27.1376 108.661 27.9765 109.588 28.3751C110.749 28.8578 112.212 28.6603 113.119 27.7651C114.047 26.8926 114.412 25.5821 114.387 24.3425C114.378 23.4831 114.277 22.6019 113.907 21.8142C113.648 21.2598 113.222 20.7757 112.673 20.4905C111.984 20.127 111.179 20.0517 110.412 20.1138L110.413 20.1146ZM39.2782 17.0232C40.7007 16.8901 42.1527 16.8945 43.556 17.1863C44.7095 17.4349 45.8747 17.9491 46.5941 18.9152C47.3812 19.961 47.5655 21.3169 47.5611 22.5865L47.5581 31.2727C46.2845 31.2675 45.0116 31.2734 43.7388 31.2697C43.6113 30.869 43.5324 30.455 43.4897 30.0374C42.5684 30.9253 41.3132 31.3992 40.055 31.5623C39.0431 31.6837 38.0105 31.6676 37.0051 31.4935C35.9556 31.318 34.9097 30.8353 34.2855 29.9489C33.5374 28.9565 33.5226 27.6284 33.76 26.4604C33.97 25.4 34.7144 24.4836 35.6733 23.987C36.8636 23.3464 38.2286 23.1877 39.5457 22.9778C40.4648 22.8293 41.4046 22.773 42.3008 22.5075C42.6575 22.3978 43.0393 22.2311 43.2162 21.8822C43.4277 21.4617 43.43 20.9022 43.1189 20.5278C42.7629 20.1204 42.2175 19.9449 41.6986 19.852C40.8901 19.7394 40.0351 19.7277 39.2605 20.0151C38.505 20.3076 38.0783 21.0902 37.9441 21.8486H34.1285C34.169 20.6828 34.4911 19.4534 35.3483 18.6102C36.3779 17.579 37.8645 17.1768 39.2782 17.021M42.7224 24.8317C41.4827 25.2266 40.1479 25.2603 38.9377 25.7561C38.5279 25.92 38.1299 26.1781 37.925 26.5789C37.6891 27.0455 37.6641 27.6145 37.8461 28.1023C38.0156 28.5462 38.4601 28.819 38.9126 28.9141C39.5995 29.0552 40.3226 29.0092 40.9948 28.8139C42.1114 28.4936 43.116 27.6189 43.3754 26.4663C43.4786 25.7993 43.4211 25.1191 43.4616 24.4478C43.2354 24.6109 42.9899 24.7498 42.7224 24.8317ZM69.3886 17.0137C71.47 16.7884 73.6878 17.0488 75.4839 18.1838C76.8312 19.0102 77.8226 20.3537 78.2626 21.8581C78.6665 23.2286 78.7011 24.6993 78.421 26.0962C78.1336 27.4843 77.4187 28.7949 76.347 29.742C75.0778 30.8741 73.3893 31.4584 71.7066 31.5981C69.5913 31.7751 67.3477 31.4314 65.5818 30.1991C64.7003 29.5891 63.9794 28.7546 63.5107 27.7944C62.8289 26.4122 62.6373 24.8303 62.7957 23.3113C62.9432 21.9034 63.476 20.5175 64.4172 19.4425C65.6599 18.009 67.5202 17.2162 69.3901 17.0144M69.6849 20.1614C68.9014 20.3062 68.1518 20.7245 67.7022 21.3871C67.1082 22.2472 66.9704 23.3252 66.9726 24.3432C66.9799 25.3524 67.1332 26.4202 67.7361 27.2627C68.2668 28.0211 69.1807 28.4255 70.0873 28.5111C71.1229 28.612 72.2572 28.506 73.1129 27.8661C73.9015 27.281 74.2744 26.3105 74.3975 25.3707C74.5191 24.3702 74.5029 23.3339 74.2081 22.3627C73.9723 21.5824 73.4578 20.8635 72.7141 20.4905C71.7855 20.0224 70.6924 19.9895 69.6849 20.1614ZM85.0559 17.764C86.0988 17.0473 87.424 16.9054 88.66 16.95C89.3602 16.9793 90.0825 17.0795 90.7068 17.4159C91.466 17.8181 92.0482 18.472 92.5568 19.147C92.9054 18.5202 93.3823 17.9476 94.0124 17.5841C94.9264 17.0502 96.0172 16.9091 97.0609 16.9478C98.3359 16.9939 99.6294 17.4254 100.575 18.2964C101.543 19.177 102.107 20.4758 102.051 21.7828V31.2719H98.0426V22.8059C98.0426 22.0234 97.8303 21.2028 97.2724 20.6265C96.5376 19.8315 95.2212 19.7525 94.3213 20.3069C93.6992 20.7018 93.2629 21.3586 93.1015 22.0694C92.9813 22.5492 93.0056 23.0465 93.0056 23.5358L93.0049 31.2712H88.9011L88.8988 22.656C88.8694 21.9905 88.8502 21.254 88.4153 20.7069C88.0173 20.2169 87.3452 20.1029 86.7474 20.0736C86.0192 20.0334 85.207 20.1343 84.6616 20.6645C84.1118 21.1962 83.9688 21.9956 83.9599 22.7269L83.957 31.2705C82.5912 31.2712 81.2255 31.269 79.859 31.2719L79.8575 17.3069H83.7034L83.7064 19.3291C84.0616 18.7367 84.4847 18.1677 85.0552 17.764H85.0559ZM122.807 17.9966C124.146 17.2024 125.733 16.9274 127.277 16.942C128.723 16.9493 130.215 17.2199 131.45 18.0054C132.414 18.6051 133.158 19.5163 133.621 20.5431C134.29 22.0168 134.472 23.6557 134.479 25.2574C130.915 25.2566 127.352 25.2566 123.79 25.2574C123.834 25.8205 123.943 26.3866 124.195 26.897C124.554 27.6459 125.211 28.2573 126.008 28.5221C126.766 28.7707 127.599 28.7737 128.367 28.5704C129.096 28.3765 129.809 27.9034 130.038 27.1537L134.261 27.1545C133.885 28.2734 133.231 29.3119 132.306 30.0616C131.071 31.0803 129.464 31.5784 127.873 31.6325C126.499 31.6712 125.099 31.5484 123.8 31.0767C122.715 30.6854 121.722 30.003 121.047 29.0655C120.273 28.0123 119.903 26.7215 119.765 25.4395C119.612 23.9717 119.664 22.4439 120.217 21.0573C120.71 19.792 121.625 18.6862 122.806 17.9973M124.488 21.1969C124.137 21.706 123.977 22.3174 123.916 22.9229H130.253C130.217 22.3122 130.073 21.6943 129.726 21.1794C129.094 20.1833 127.823 19.7628 126.682 19.8908C125.803 19.9756 124.981 20.4744 124.487 21.1977L124.488 21.1969ZM142.166 17.1161C142.97 16.9208 143.803 16.9435 144.624 16.942V20.7157C143.792 20.6031 142.937 20.5914 142.116 20.7742C141.442 20.9242 140.784 21.2569 140.364 21.8157C139.893 22.4278 139.742 23.2184 139.738 23.9731L139.736 31.2719C138.369 31.2705 137.003 31.2719 135.636 31.2712V17.3077L139.481 17.3062L139.483 18.9737C140.112 18.0566 141.078 17.3771 142.166 17.1161H142.166ZM148.68 17.7158C150.034 16.9844 151.647 16.7796 153.156 17.0597C154.384 17.2777 155.499 18.001 156.2 19.0249L156.199 17.3084L160.299 17.3062V31.5052C160.296 32.6293 160.026 33.768 159.415 34.7231C158.862 35.6227 158.044 36.3416 157.114 36.8382C155.944 37.4642 154.622 37.7743 153.302 37.8584C151.636 37.9571 149.924 37.7312 148.403 37.0247C147.331 36.5303 146.379 35.7448 145.782 34.7246C145.291 33.9172 145.075 32.9694 145.075 32.0333H148.888C148.9 32.5745 149.027 33.1347 149.375 33.5669C149.891 34.2178 150.716 34.5469 151.527 34.6493C152.802 34.8102 154.193 34.5981 155.217 33.779C155.807 33.3241 156.175 32.6088 156.196 31.868C156.211 31.0562 156.195 30.2429 156.203 29.4304C155.616 30.5764 154.311 31.1154 153.093 31.3026C151.808 31.4687 150.473 31.3941 149.238 30.986C148.089 30.5764 147.037 29.84 146.347 28.8285C145.615 27.7944 145.277 26.5409 145.137 25.2991C144.972 23.7896 145.132 22.2179 145.785 20.8327C146.379 19.5207 147.396 18.3922 148.68 17.7172M151.939 20.2316C151.205 20.3632 150.512 20.7596 150.089 21.3747C149.634 22.0182 149.448 22.8059 149.374 23.5775C149.296 24.4624 149.319 25.3802 149.634 26.2227C149.951 27.0843 150.607 27.8354 151.456 28.212C152.786 28.7839 154.493 28.468 155.436 27.3432C156.284 26.3909 156.409 25.0409 156.298 23.8254C156.225 22.958 156.031 22.0629 155.51 21.3447C155.143 20.8327 154.591 20.4634 153.984 20.2974C153.321 20.116 152.616 20.1109 151.943 20.2316H151.939Z" fill="black"/>
<path d="M7.24783 19.7599C7.44168 19.6634 7.665 19.6868 7.87432 19.6824L13.4832 19.6985C11.9929 19.6911 10.4577 19.9515 9.15678 20.7063C8.20231 21.2562 7.42841 22.1338 7.08347 23.1819C6.93754 23.5863 6.88816 24.0156 6.81445 24.4368C6.85131 23.0926 6.81445 21.7477 6.83288 20.4035C6.83656 20.1329 7.0024 19.8769 7.2471 19.7599H7.24783ZM14.106 22.0431C15.1283 21.7287 16.3171 22.1982 16.8404 23.1241C17.4338 24.0953 17.1832 25.4658 16.2781 26.1635C15.3826 26.9132 13.9343 26.851 13.111 26.0217C12.2745 25.2479 12.1499 23.8627 12.8265 22.95C13.1339 22.5156 13.593 22.1916 14.1053 22.0431H14.106ZM6.81667 25.193C6.91985 26.0209 7.12254 26.8547 7.5854 27.5626C8.28559 28.6933 9.48107 29.4553 10.7569 29.7983C12.0954 30.1567 13.5245 30.1669 14.8755 29.8685C16.2036 29.5731 17.4478 28.9046 18.4015 27.9378C18.4074 28.3473 18.3904 28.7569 18.4067 29.1664C18.4008 29.4407 18.6602 29.6659 18.9314 29.6491L22.3896 29.644C22.6329 29.6462 22.784 29.4356 22.8378 29.222C22.8451 29.9373 22.5827 30.6628 22.0602 31.1652C21.4558 31.759 20.5861 32.0157 19.7488 32.0136H9.86876C9.09486 32.0165 8.32834 31.7064 7.77114 31.1725C7.19772 30.6313 6.85204 29.8605 6.83362 29.0736L6.81667 25.1887V25.193Z" fill="black"/>
<path d="M105.922 34.9419H106.811L106.805 38.1891C107.169 37.5162 108.106 37.2866 108.758 37.6757C109.204 37.9389 109.401 38.4728 109.409 38.9665L109.413 41.2212H108.523C108.515 40.4708 108.54 39.7205 108.512 38.9709C108.511 38.6052 108.195 38.2907 107.825 38.3031C107.346 38.2468 106.845 38.5884 106.822 39.0857C106.791 39.7965 106.819 40.5096 106.809 41.2212H105.921V34.9412L105.922 34.9419ZM100.91 35.2417L101.012 35.2505C101.295 35.8619 101.542 36.4894 101.815 37.1067C102.111 37.8248 102.461 38.524 102.67 39.2751C103.031 37.9353 103.534 36.6379 103.948 35.3134C104.252 35.3039 104.557 35.3061 104.862 35.3061L102.786 41.3214C102.713 41.2739 102.646 41.219 102.622 41.1349L101.626 38.761C101.393 38.1978 101.133 37.642 100.962 37.0569C100.765 37.664 100.49 38.2432 100.243 38.8312L99.2257 41.1905C99.222 41.2753 99.0768 41.3499 99.0584 41.2344L96.9947 35.3054L97.9691 35.3039L98.6641 37.3773C98.8705 38.0084 99.1048 38.6308 99.2478 39.2802C99.4785 38.4904 99.8433 37.7517 100.156 36.9926C100.412 36.4097 100.64 35.8151 100.912 35.2403L100.91 35.2417ZM133.096 35.3514C133.749 35.1372 134.531 35.1818 135.089 35.6096C135.88 36.2093 135.941 37.533 135.204 38.1964C134.926 38.4538 134.553 38.5694 134.185 38.6301V39.4162C133.906 39.4162 133.628 39.4163 133.351 39.4126L133.351 37.9499C133.702 37.9484 134.087 37.9689 134.391 37.7598C134.89 37.4409 134.949 36.6408 134.509 36.2488C134.211 35.9797 133.754 35.9709 133.396 36.1098C133.123 36.2137 132.953 36.4624 132.806 36.6993L132.081 36.2846C132.284 35.8605 132.637 35.497 133.096 35.3507L133.096 35.3514ZM137.135 35.6784C137.211 35.3032 137.701 35.1211 138.013 35.339C138.285 35.4984 138.335 35.8692 138.204 36.1362C138.017 36.5311 137.788 36.9041 137.587 37.2895C137.434 37.2895 137.283 37.2888 137.134 37.2895L137.441 36.3666C137.223 36.213 137.051 35.9526 137.135 35.6776V35.6784ZM138.75 35.8948C138.686 35.5218 139.064 35.1708 139.435 35.2549C139.79 35.3046 140.011 35.712 139.874 36.0374C139.7 36.4763 139.436 36.8712 139.222 37.2902L138.77 37.2895L139.075 36.3658C138.928 36.24 138.761 36.1025 138.749 35.8941L138.75 35.8948ZM93.4141 35.3368C93.5505 35.271 93.7237 35.3207 93.8748 35.3039L93.5682 36.2342C93.7451 36.3622 93.9131 36.5413 93.8984 36.7768C93.9161 37.1644 93.4746 37.4665 93.1149 37.3166C92.7832 37.2069 92.6506 36.7944 92.7994 36.4938C92.9837 36.0989 93.1952 35.7142 93.4141 35.3368ZM94.429 36.4997C94.6185 36.0901 94.8514 35.7025 95.0599 35.3046L95.5095 35.3068L95.2029 36.2283C95.3982 36.3717 95.5773 36.5852 95.5302 36.8456C95.5007 37.2288 95.0334 37.4731 94.6951 37.2917C94.3966 37.1623 94.2838 36.7798 94.4283 36.4989L94.429 36.4997ZM129.046 35.663L129.935 35.6623V37.5638H130.915V38.3105H129.935L129.938 40.0708C129.943 40.2375 129.975 40.457 130.162 40.5191C130.368 40.5923 130.569 40.4752 130.745 40.3758L131.167 40.9682C130.722 41.3485 130.028 41.4289 129.519 41.1364C129.091 40.8621 129.032 40.3056 129.044 39.8448L129.046 38.3112H128.493L128.49 37.5725L129.046 37.5652V35.6659L129.046 35.663ZM119.029 38.2176C119.396 37.4884 120.435 37.2595 121.09 37.7364C121.498 38.0325 121.653 38.5555 121.652 39.0381L121.653 41.2205L120.764 41.2212V39.1837C120.764 38.9204 120.725 38.6206 120.502 38.4487C120.231 38.2498 119.85 38.2673 119.551 38.3902C119.231 38.5204 119.054 38.8626 119.054 39.1947C119.042 39.8704 119.053 40.5462 119.049 41.2219H118.16V37.5652H119.052L119.03 38.2183L119.029 38.2176ZM124.721 37.5301C125.377 37.3985 126.106 37.574 126.583 38.0516C127.291 38.7303 127.316 39.9604 126.644 40.672C125.899 41.4984 124.452 41.5057 123.687 40.7027C123.049 40.0664 122.987 38.965 123.54 38.2571C123.824 37.8782 124.257 37.6208 124.722 37.5301M124.887 38.2856C123.973 38.467 123.807 39.8251 124.511 40.3407C124.963 40.6683 125.691 40.5893 126.011 40.1139C126.288 39.6949 126.291 39.1047 126.016 38.6834C125.779 38.3207 125.296 38.1913 124.887 38.2849V38.2856ZM110.606 37.5645L111.592 37.5638C111.916 38.4048 112.364 39.2049 112.566 40.0869C112.773 39.202 113.226 38.4033 113.559 37.5638L114.484 37.5645L112.077 43.0613L111.158 43.062L112.112 40.8855L110.606 37.5652V37.5645ZM133.582 40.1132C133.934 39.994 134.351 40.2705 134.353 40.6456C134.385 40.9718 134.1 41.2768 133.771 41.2731C133.461 41.2878 133.172 41.0318 133.163 40.7232C133.136 40.454 133.318 40.1842 133.583 40.1132H133.582Z" fill="black"/>
</g>
<defs>
<clipPath id="clip0_5536_1617">
<rect width="160" height="49" fill="white" transform="translate(0 0.5)"/>
</clipPath>
</defs>
</svg>
